<?xml version="1.0" encoding="UTF-8" standalone="no"?>
<!-- Generator: Adobe Illustrator 27.7.0, SVG Export Plug-In . SVG Version: 6.00 Build 0)  -->

<svg
   version="1.1"
   id="Ebene_1"
   x="0px"
   y="0px"
   viewBox="0 0 213.60001 227.55001"
   xml:space="preserve"
   sodipodi:docname="logo.svg"
   width="213.60001"
   height="227.55"
   inkscape:version="1.3 (0e150ed6c4, 2023-07-21)"
   xmlns:inkscape="http://www.inkscape.org/namespaces/inkscape"
   xmlns:sodipodi="http://sodipodi.sourceforge.net/DTD/sodipodi-0.dtd"
   xmlns="http://www.w3.org/2000/svg"
   xmlns:svg="http://www.w3.org/2000/svg"><defs
   id="defs108" /><sodipodi:namedview
   id="namedview108"
   pagecolor="#ffffff"
   bordercolor="#000000"
   borderopacity="0.25"
   inkscape:showpageshadow="2"
   inkscape:pageopacity="0.0"
   inkscape:pagecheckerboard="0"
   inkscape:deskcolor="#d1d1d1"
   inkscape:zoom="2.8681296"
   inkscape:cx="106.68974"
   inkscape:cy="120.81044"
   inkscape:window-width="1920"
   inkscape:window-height="1009"
   inkscape:window-x="-8"
   inkscape:window-y="-8"
   inkscape:window-maximized="1"
   inkscape:current-layer="Ebene_1" />&#10;<style
   type="text/css"
   id="style1">&#10;	.st0{fill:#FFFFFF;}&#10;</style>&#10;<g
   id="_x31__1_"
   transform="translate(-34.93,-20.88)">&#10;	<g
   id="g65">&#10;		<g
   id="g58">&#10;			<g
   id="g1">&#10;				<path
   d="m 141.82,63.75 c -0.52,0 -0.94,-10.55 -0.94,-17.16 0,-1.51 0.42,-2.29 0.94,-2.29 0.52,0 0.95,1.34 0.95,2.29 0,6.62 -0.42,17.16 -0.95,17.16 z"
   id="path1" />&#10;			</g>&#10;			<g
   id="g2">&#10;				<path
   d="m 141.82,41.71 c -0.52,0 -0.94,-4.99 -0.94,-8.12 0,-0.71 0.42,-1.08 0.94,-1.08 0.52,0 0.95,0.64 0.95,1.08 0,3.13 -0.42,8.12 -0.95,8.12 z"
   id="path2" />&#10;			</g>&#10;			<g
   id="g3">&#10;				<path
   d="m 141.82,29.91 c -0.52,0 -0.94,-4.89 -0.94,-7.97 0,-0.7 0.42,-1.06 0.94,-1.06 0.52,0 0.95,0.62 0.95,1.06 0,3.08 -0.42,7.97 -0.95,7.97 z"
   id="path3" />&#10;			</g>&#10;			<g
   id="g4">&#10;				<path
   d="m 90.48,112.94 c 0,0.53 -10.99,0.95 -17.89,0.95 -1.57,0 -2.38,-0.42 -2.38,-0.95 0,-0.52 1.39,-0.94 2.38,-0.94 6.89,0.01 17.89,0.42 17.89,0.94 z"
   id="path4" />&#10;			</g>&#10;			<g
   id="g5">&#10;				<path
   d="m 67.49,112.94 c 0,0.53 -5.2,0.95 -8.47,0.95 -0.74,0 -1.12,-0.42 -1.12,-0.95 0,-0.52 0.65,-0.94 1.12,-0.94 3.27,0.01 8.47,0.42 8.47,0.94 z"
   id="path5" />&#10;			</g>&#10;			<g
   id="g6">&#10;				<path
   d="m 55.19,112.94 c 0,0.53 -5.11,0.95 -8.31,0.95 -0.73,0 -1.11,-0.42 -1.11,-0.95 0,-0.52 0.65,-0.94 1.11,-0.94 3.2,0.01 8.31,0.42 8.31,0.94 z"
   id="path6" />&#10;			</g>&#10;			<g
   id="g7">&#10;				<path
   d="m 193,112.94 c 0,-0.52 10.99,-0.94 17.89,-0.94 1.57,0 2.38,0.42 2.38,0.94 0,0.53 -1.38,0.95 -2.38,0.95 -6.9,0 -17.89,-0.42 -17.89,-0.95 z"
   id="path7" />&#10;			</g>&#10;			<g
   id="g8">&#10;				<path
   d="m 215.98,112.94 c 0,-0.52 5.2,-0.94 8.46,-0.94 0.74,0 1.12,0.42 1.12,0.94 0,0.53 -0.66,0.95 -1.12,0.95 -3.26,0 -8.46,-0.42 -8.46,-0.95 z"
   id="path8" />&#10;			</g>&#10;			<g
   id="g9">&#10;				<path
   d="m 228.28,112.94 c 0,-0.52 5.11,-0.94 8.31,-0.94 0.73,0 1.1,0.42 1.1,0.94 0,0.53 -0.64,0.95 -1.1,0.95 -3.2,0 -8.31,-0.42 -8.31,-0.95 z"
   id="path9" />&#10;			</g>&#10;			<g
   id="g10">&#10;				<path
   d="m 183.02,89.01 c -0.26,-0.45 9.05,-6.32 15.03,-9.77 1.35,-0.78 2.26,-0.82 2.52,-0.37 0.26,0.44 -0.73,1.51 -1.59,2 -5.96,3.46 -15.7,8.58 -15.96,8.14 z"
   id="path10" />&#10;			</g>&#10;			<g
   id="g11">&#10;				<path
   d="m 202.92,77.51 c -0.26,-0.45 4.03,-3.42 6.86,-5.05 0.65,-0.37 1.18,-0.2 1.45,0.25 0.26,0.45 -0.1,1.14 -0.5,1.38 -2.83,1.64 -7.55,3.87 -7.81,3.42 z"
   id="path11" />&#10;			</g>&#10;			<g
   id="g12">&#10;				<path
   d="m 213.58,71.36 c -0.26,-0.45 3.95,-3.37 6.73,-4.98 0.63,-0.37 1.16,-0.18 1.42,0.26 0.26,0.45 -0.09,1.14 -0.48,1.37 -2.78,1.61 -7.41,3.8 -7.67,3.35 z"
   id="path12" />&#10;			</g>&#10;			<g
   id="g13">&#10;				<path
   d="m 166.45,70.69 c -0.45,-0.26 4.68,-9.99 8.12,-15.96 0.79,-1.36 1.55,-1.85 2.01,-1.59 0.45,0.26 0.12,1.67 -0.38,2.53 -3.44,5.97 -9.3,15.28 -9.75,15.02 z"
   id="path13" />&#10;			</g>&#10;			<g
   id="g14">&#10;				<path
   d="m 177.95,50.79 c -0.45,-0.27 1.78,-4.98 3.41,-7.81 0.37,-0.65 0.93,-0.76 1.38,-0.5 0.45,0.26 0.48,1.04 0.25,1.45 -1.63,2.82 -4.6,7.12 -5.04,6.86 z"
   id="path14" />&#10;			</g>&#10;			<g
   id="g15">&#10;				<path
   d="m 184.1,40.13 c -0.45,-0.26 1.73,-4.89 3.33,-7.66 0.37,-0.63 0.92,-0.74 1.37,-0.49 0.45,0.26 0.49,1.03 0.27,1.43 -1.6,2.77 -4.52,6.98 -4.97,6.72 z"
   id="path15" />&#10;			</g>&#10;			<g
   id="g16">&#10;				<path
   d="m 190.55,104.36 c -0.1,-0.51 8.53,-2.46 14,-3.42 1.23,-0.22 1.95,0.08 2.04,0.59 0.09,0.52 -0.94,1.13 -1.72,1.26 -5.46,0.96 -14.23,2.08 -14.32,1.57 z"
   id="path16" />&#10;			</g>&#10;			<g
   id="g17">&#10;				<path
   d="m 208.92,101.12 c -0.1,-0.51 3.61,-1.6 5.98,-2.02 0.54,-0.09 0.9,0.27 0.98,0.79 0.1,0.51 -0.31,1.01 -0.65,1.07 -2.38,0.42 -6.23,0.67 -6.31,0.16 z"
   id="path17" />&#10;			</g>&#10;			<g
   id="g18">&#10;				<path
   d="m 218.21,99.47 c -0.1,-0.52 2.65,-1.42 4.42,-1.73 0.4,-0.07 0.69,0.3 0.77,0.82 0.09,0.51 -0.19,0.99 -0.45,1.04 -1.76,0.31 -4.65,0.39 -4.74,-0.13 z"
   id="path18" />&#10;			</g>&#10;			<g
   id="g19">&#10;				<path
   d="m 182.04,79.15 c -0.33,-0.4 6.16,-6.4 10.41,-9.96 0.96,-0.81 1.74,-0.91 2.07,-0.51 0.33,0.41 -0.24,1.44 -0.86,1.95 -4.24,3.57 -11.28,8.92 -11.62,8.52 z"
   id="path19" />&#10;			</g>&#10;			<g
   id="g20">&#10;				<path
   d="m 196.33,67.17 c -0.33,-0.4 2.33,-3.19 4.18,-4.74 0.42,-0.35 0.91,-0.21 1.24,0.19 0.34,0.4 0.23,1.03 -0.03,1.25 -1.85,1.56 -5.05,3.7 -5.39,3.3 z"
   id="path20" />&#10;			</g>&#10;			<g
   id="g21">&#10;				<path
   d="m 203.56,61.1 c -0.33,-0.4 1.59,-2.56 2.97,-3.71 0.31,-0.26 0.74,-0.07 1.08,0.32 0.34,0.4 0.33,0.96 0.13,1.12 -1.38,1.16 -3.85,2.67 -4.18,2.27 z"
   id="path21" />&#10;			</g>&#10;			<g
   id="g22">&#10;				<path
   d="m 157.63,69.68 c -0.48,-0.18 2.13,-8.61 4.03,-13.82 0.44,-1.19 1.06,-1.65 1.54,-1.47 0.49,0.18 0.5,1.37 0.23,2.11 -1.89,5.21 -5.31,13.36 -5.8,13.18 z"
   id="path22" />&#10;			</g>&#10;			<g
   id="g23">&#10;				<path
   d="m 164.01,52.16 c -0.49,-0.18 0.43,-3.93 1.25,-6.2 0.18,-0.51 0.68,-0.64 1.17,-0.46 0.49,0.18 0.72,0.77 0.6,1.1 -0.82,2.28 -2.53,5.75 -3.02,5.56 z"
   id="path23" />&#10;			</g>&#10;			<g
   id="g24">&#10;				<path
   d="m 167.24,43.29 c -0.5,-0.18 0.09,-3.01 0.7,-4.69 0.14,-0.38 0.61,-0.44 1.1,-0.26 0.49,0.17 0.76,0.66 0.68,0.9 -0.62,1.68 -1.99,4.23 -2.48,4.05 z"
   id="path24" />&#10;			</g>&#10;			<g
   id="g25">&#10;				<path
   d="m 197.13,92.89 c -0.19,-0.49 4.8,-2.76 8.02,-3.93 0.73,-0.27 1.26,-0.01 1.44,0.48 0.17,0.49 -0.33,1.12 -0.79,1.29 -3.22,1.17 -8.5,2.64 -8.67,2.16 z"
   id="path25" />&#10;			</g>&#10;			<g
   id="g26">&#10;				<path
   d="m 208.81,88.63 c -0.18,-0.49 1.63,-1.6 2.84,-2.04 0.28,-0.1 0.57,0.24 0.75,0.74 0.18,0.48 0.08,0.97 -0.1,1.03 -1.23,0.45 -3.32,0.76 -3.49,0.27 z"
   id="path26" />&#10;			</g>&#10;			<g
   id="g27">&#10;				<path
   d="m 214.62,86.52 c -0.18,-0.49 1.02,-1.38 1.86,-1.68 0.19,-0.07 0.43,0.29 0.61,0.78 0.17,0.49 0.14,0.95 0.03,0.99 -0.84,0.3 -2.33,0.4 -2.5,-0.09 z"
   id="path27" />&#10;			</g>&#10;			<g
   id="g28">&#10;				<path
   d="m 178.7,68.77 c -0.4,-0.34 2.79,-4.79 4.99,-7.41 0.5,-0.6 1.09,-0.64 1.48,-0.3 0.4,0.33 0.28,1.14 -0.04,1.51 -2.2,2.63 -6.03,6.54 -6.43,6.2 z"
   id="path28" />&#10;			</g>&#10;			<g
   id="g29">&#10;				<path
   d="m 186.69,59.25 c -0.4,-0.34 0.61,-2.19 1.44,-3.19 0.19,-0.23 0.61,-0.07 1.01,0.27 0.4,0.33 0.55,0.8 0.43,0.95 -0.82,0.99 -2.48,2.3 -2.88,1.97 z"
   id="path29" />&#10;			</g>&#10;			<g
   id="g30">&#10;				<path
   d="m 190.66,54.51 c -0.4,-0.33 0.2,-1.7 0.78,-2.39 0.13,-0.16 0.52,0.03 0.92,0.37 0.4,0.33 0.61,0.74 0.52,0.84 -0.58,0.7 -1.81,1.52 -2.22,1.18 z"
   id="path30" />&#10;			</g>&#10;			<g
   id="g31">&#10;				<path
   d="m 151.44,56.03 c -0.51,-0.09 0.02,-5.54 0.61,-8.92 0.14,-0.77 0.63,-1.09 1.14,-1 0.51,0.09 0.81,0.84 0.72,1.32 -0.59,3.39 -1.96,8.69 -2.47,8.6 z"
   id="path31" />&#10;			</g>&#10;			<g
   id="g32">&#10;				<path
   d="m 153.59,43.79 c -0.51,-0.09 -0.57,-2.2 -0.34,-3.48 0.05,-0.29 0.49,-0.37 1.01,-0.27 0.51,0.09 0.88,0.42 0.85,0.6 -0.23,1.28 -1,3.24 -1.52,3.15 z"
   id="path32" />&#10;			</g>&#10;			<g
   id="g33">&#10;				<path
   d="m 154.66,37.7 c -0.51,-0.09 -0.68,-1.57 -0.52,-2.45 0.03,-0.2 0.47,-0.23 0.98,-0.14 0.51,0.09 0.9,0.34 0.88,0.47 -0.15,0.88 -0.82,2.22 -1.34,2.12 z"
   id="path33" />&#10;			</g>&#10;			<g
   id="g34">&#10;				<path
   d="m 97.38,87.48 c -0.26,0.45 -9.99,-4.68 -15.96,-8.13 -1.36,-0.78 -1.85,-1.55 -1.59,-2 0.25,-0.45 1.67,-0.12 2.53,0.38 5.97,3.43 15.28,9.3 15.02,9.75 z"
   id="path34" />&#10;			</g>&#10;			<g
   id="g35">&#10;				<path
   d="m 77.47,75.99 c -0.25,0.45 -4.98,-1.79 -7.8,-3.42 -0.65,-0.37 -0.76,-0.93 -0.5,-1.38 0.26,-0.45 1.04,-0.49 1.44,-0.25 2.83,1.63 7.12,4.59 6.86,5.05 z"
   id="path35" />&#10;			</g>&#10;			<g
   id="g36">&#10;				<path
   d="m 66.82,69.83 c -0.26,0.45 -4.89,-1.74 -7.67,-3.34 -0.63,-0.36 -0.74,-0.92 -0.48,-1.36 0.26,-0.45 1.03,-0.49 1.43,-0.27 2.77,1.6 6.98,4.52 6.72,4.97 z"
   id="path36" />&#10;			</g>&#10;			<g
   id="g37">&#10;				<path
   d="m 116.66,70.69 c -0.44,0.26 -6.3,-9.05 -9.76,-15.02 -0.78,-1.36 -0.82,-2.27 -0.37,-2.53 0.46,-0.26 1.51,0.73 2,1.59 3.46,5.97 8.59,15.7 8.13,15.96 z"
   id="path37" />&#10;			</g>&#10;			<g
   id="g38">&#10;				<path
   d="m 105.18,50.79 c -0.46,0.26 -3.42,-4.04 -5.05,-6.86 -0.37,-0.64 -0.2,-1.18 0.25,-1.45 0.45,-0.26 1.15,0.1 1.38,0.5 1.63,2.83 3.86,7.55 3.42,7.81 z"
   id="path38" />&#10;			</g>&#10;			<g
   id="g39">&#10;				<path
   d="m 99.02,40.13 c -0.46,0.26 -3.37,-3.95 -4.97,-6.72 -0.36,-0.63 -0.19,-1.17 0.26,-1.43 0.45,-0.26 1.14,0.09 1.37,0.49 1.61,2.77 3.79,7.4 3.34,7.66 z"
   id="path39" />&#10;			</g>&#10;			<g
   id="g40">&#10;				<path
   d="m 92.57,104.36 c -0.09,0.51 -8.86,-0.61 -14.32,-1.57 -1.24,-0.22 -1.81,-0.74 -1.72,-1.26 0.1,-0.51 1.26,-0.73 2.05,-0.59 5.45,0.95 14.08,2.9 13.99,3.42 z"
   id="path40" />&#10;			</g>&#10;			<g
   id="g41">&#10;				<path
   d="m 74.21,101.12 c -0.08,0.51 -3.94,0.26 -6.32,-0.16 -0.54,-0.1 -0.75,-0.56 -0.66,-1.07 0.09,-0.51 0.64,-0.84 0.99,-0.79 2.37,0.42 6.08,1.5 5.99,2.02 z"
   id="path41" />&#10;			</g>&#10;			<g
   id="g42">&#10;				<path
   d="m 64.91,99.47 c -0.09,0.52 -2.98,0.43 -4.75,0.12 -0.4,-0.07 -0.53,-0.53 -0.44,-1.04 0.09,-0.52 0.52,-0.87 0.77,-0.82 1.77,0.33 4.51,1.23 4.42,1.74 z"
   id="path42" />&#10;			</g>&#10;			<g
   id="g43">&#10;				<path
   d="m 102.12,80.71 c -0.33,0.39 -7.36,-4.95 -11.62,-8.52 -0.96,-0.81 -1.19,-1.55 -0.86,-1.95 0.34,-0.4 1.46,-0.01 2.07,0.51 4.25,3.56 10.74,9.56 10.41,9.96 z"
   id="path43" />&#10;			</g>&#10;			<g
   id="g44">&#10;				<path
   d="m 87.84,68.72 c -0.33,0.41 -3.54,-1.74 -5.39,-3.29 -0.42,-0.35 -0.37,-0.86 -0.03,-1.26 0.34,-0.4 0.98,-0.41 1.24,-0.19 1.84,1.55 4.51,4.34 4.18,4.74 z"
   id="path44" />&#10;			</g>&#10;			<g
   id="g45">&#10;				<path
   d="m 80.61,62.66 c -0.34,0.39 -2.8,-1.12 -4.17,-2.27 -0.31,-0.26 -0.2,-0.72 0.14,-1.12 0.33,-0.4 0.88,-0.49 1.08,-0.32 1.36,1.14 3.28,3.31 2.95,3.71 z"
   id="path45" />&#10;			</g>&#10;			<g
   id="g46">&#10;				<path
   d="m 125.49,69.68 c -0.49,0.18 -3.91,-7.97 -5.8,-13.18 -0.43,-1.18 -0.26,-1.94 0.23,-2.11 0.49,-0.18 1.27,0.72 1.54,1.47 1.89,5.21 4.51,13.64 4.03,13.82 z"
   id="path46" />&#10;			</g>&#10;			<g
   id="g47">&#10;				<path
   d="m 119.11,52.16 c -0.49,0.18 -2.2,-3.28 -3.03,-5.55 -0.18,-0.51 0.11,-0.93 0.61,-1.1 0.49,-0.18 1.05,0.13 1.17,0.46 0.82,2.26 1.74,6.02 1.25,6.19 z"
   id="path47" />&#10;			</g>&#10;			<g
   id="g48">&#10;				<path
   d="m 115.88,43.29 c -0.49,0.18 -1.86,-2.36 -2.47,-4.05 -0.15,-0.39 0.18,-0.73 0.67,-0.9 0.49,-0.18 1.01,0.01 1.1,0.26 0.6,1.68 1.19,4.51 0.7,4.69 z"
   id="path48" />&#10;			</g>&#10;			<g
   id="g49">&#10;				<path
   d="m 85.99,92.89 c -0.18,0.49 -5.46,-0.99 -8.68,-2.16 -0.73,-0.27 -0.96,-0.8 -0.79,-1.29 0.18,-0.49 0.97,-0.65 1.44,-0.48 3.22,1.17 8.21,3.43 8.03,3.93 z"
   id="path49" />&#10;			</g>&#10;			<g
   id="g50">&#10;				<path
   d="m 74.31,88.63 c -0.17,0.49 -2.27,0.18 -3.49,-0.27 -0.27,-0.1 -0.27,-0.55 -0.1,-1.03 0.18,-0.5 0.57,-0.8 0.74,-0.74 1.23,0.44 3.03,1.55 2.85,2.04 z"
   id="path50" />&#10;			</g>&#10;			<g
   id="g51">&#10;				<path
   d="m 68.51,86.52 c -0.18,0.49 -1.67,0.4 -2.51,0.09 -0.19,-0.06 -0.15,-0.5 0.03,-0.99 0.19,-0.49 0.5,-0.82 0.62,-0.78 0.84,0.3 2.03,1.19 1.86,1.68 z"
   id="path51" />&#10;			</g>&#10;			<g
   id="g52">&#10;				<path
   d="m 103.12,67.87 c -0.4,0.34 -4.24,-3.58 -6.44,-6.2 -0.5,-0.6 -0.44,-1.18 -0.04,-1.51 0.4,-0.34 1.17,-0.08 1.48,0.3 2.22,2.63 5.39,7.07 5,7.41 z"
   id="path52" />&#10;			</g>&#10;			<g
   id="g53">&#10;				<path
   d="m 95.13,58.35 c -0.4,0.34 -2.06,-0.97 -2.89,-1.97 -0.18,-0.23 0.04,-0.61 0.45,-0.95 0.39,-0.34 0.88,-0.4 1.01,-0.26 0.82,0.99 1.83,2.85 1.43,3.18 z"
   id="path53" />&#10;			</g>&#10;			<g
   id="g54">&#10;				<path
   d="m 91.16,53.62 c -0.4,0.33 -1.64,-0.49 -2.22,-1.18 -0.13,-0.16 0.12,-0.51 0.52,-0.85 0.4,-0.33 0.84,-0.47 0.92,-0.37 0.58,0.7 1.18,2.06 0.78,2.4 z"
   id="path54" />&#10;			</g>&#10;			<g
   id="g55">&#10;				<path
   d="m 131.68,56.03 c -0.51,0.09 -1.88,-5.21 -2.47,-8.59 -0.13,-0.77 0.21,-1.23 0.72,-1.32 0.52,-0.09 1.05,0.51 1.14,1 0.59,3.37 1.13,8.82 0.61,8.91 z"
   id="path55" />&#10;			</g>&#10;			<g
   id="g56">&#10;				<path
   d="m 129.53,43.79 c -0.51,0.09 -1.28,-1.87 -1.51,-3.15 -0.05,-0.29 0.34,-0.52 0.85,-0.6 0.51,-0.09 0.98,0.09 1.01,0.27 0.22,1.27 0.16,3.39 -0.35,3.48 z"
   id="path56" />&#10;			</g>&#10;			<g
   id="g57">&#10;				<path
   d="m 128.45,37.7 c -0.51,0.1 -1.18,-1.24 -1.33,-2.12 -0.03,-0.2 0.36,-0.38 0.88,-0.47 0.51,-0.09 0.96,0.02 0.98,0.14 0.16,0.88 -0.02,2.36 -0.53,2.45 z"
   id="path57" />&#10;			</g>&#10;		</g>&#10;		<g
   id="g62">&#10;			<g
   id="g59">&#10;				<polygon
   points="63.06,143.55 63.06,149.19 90.28,143.55 "
   id="polygon58" />&#10;				<polygon
   points="45.77,131.8 37.76,121.96 90.28,121.96 90.28,141.65 37.76,141.65 "
   id="polygon59" />&#10;			</g>&#10;			<g
   id="g61">&#10;				<polygon
   points="220.41,143.55 220.41,149.19 193.17,143.55 "
   id="polygon60" />&#10;				<polygon
   points="237.69,131.8 245.7,121.96 193.17,121.96 193.17,141.65 245.7,141.65 "
   id="polygon61" />&#10;			</g>&#10;		</g>&#10;		<g
   id="g64">&#10;			<path
   d="m 104.72,75.25 v 66.52 h 74.02 V 75.25 m -1.63,1.63 V 99.7 h -22.43 l 1.33,1.38 c 0.3,0.31 0.6,0.64 0.88,0.97 l 0.24,0.29 h 19.98 v 37.81 h -70.76 v -37.81 h 2.96 v 2.89 h 13.64 v -2.89 h 3.39 l 0.24,-0.29 c 0.28,-0.33 0.57,-0.66 0.88,-0.97 l 1.33,-1.38 h -5.84 v -4 h -13.64 v 4 h -2.96 V 76.88 m 4.58,26.72 v -6.27 h 10.39 v 6.27 z"
   id="path62" />&#10;			<path
   d="m 122.4,114.83 c 0,10.66 8.67,19.33 19.33,19.33 10.66,0 19.32,-8.67 19.32,-19.33 0,-10.66 -8.67,-19.33 -19.33,-19.33 -10.65,0.01 -19.32,8.68 -19.32,19.33 z m 37.03,0 c 0,9.76 -7.94,17.7 -17.7,17.7 -9.76,0 -17.7,-7.94 -17.7,-17.7 0,-9.76 7.94,-17.7 17.7,-17.7 9.77,0 17.7,7.94 17.7,17.7 z"
   id="path63" />&#10;			<path
   d="m 135.72,101.44 -1,0.59 -0.15,0.08 v 0.01 l -0.2,0.12 c -2.86,1.68 -5.11,4.37 -6.28,7.46 l -0.08,-0.08 -0.29,1.12 -0.05,0.16 h 0.01 l -0.06,0.22 c -0.32,1.2 -0.47,2.45 -0.47,3.7 0,2.08 0.47,4.14 1.32,6.02 h -0.12 l 0.6,1.02 0.07,0.13 h 0.01 l 0.12,0.2 c 1.68,2.86 4.37,5.11 7.46,6.28 l -0.08,0.08 1.13,0.3 0.16,0.05 h 0.01 l 0.22,0.06 c 1.2,0.32 2.44,0.48 3.7,0.48 2.07,0 4.13,-0.47 6.01,-1.32 v 0.12 l 1.03,-0.6 0.13,-0.07 v -0.01 l 0.2,-0.12 c 2.86,-1.68 5.11,-4.37 6.28,-7.46 l 0.08,0.08 0.3,-1.15 0.04,-0.13 -0.01,-0.01 0.06,-0.22 c 0.31,-1.21 0.48,-2.45 0.48,-3.71 0,-2.07 -0.47,-4.12 -1.32,-6.01 h 0.12 l -0.6,-1.02 -0.07,-0.13 h -0.01 l -0.11,-0.2 c -1.68,-2.86 -4.38,-5.11 -7.46,-6.28 l 0.08,-0.08 -1.14,-0.3 -0.14,-0.05 -0.01,0.01 -0.22,-0.06 c -3.19,-0.84 -6.69,-0.52 -9.71,0.84 v -0.12 z m 3.52,7.38 h 4.98 l 3.52,3.52 v 4.98 l -3.53,3.52 h -4.98 l -3.52,-3.52 v -4.99 z"
   id="path64" />&#10;		</g>&#10;	</g>&#10;</g>&#10;<path
   d="m 106.73,63.45 c -2.35,0 -4.25,1.91 -4.25,4.25 0,2.34 1.91,4.25 4.25,4.25 2.34,0 4.25,-1.91 4.25,-4.25 0,-2.34 -1.91,-4.25 -4.25,-4.25 z m 0,5.96 c -0.94,0 -1.7,-0.76 -1.7,-1.7 0,-0.94 0.76,-1.71 1.7,-1.71 0.94,0 1.7,0.77 1.7,1.71 0,0.94 -0.76,1.7 -1.7,1.7 z"
   id="path65" />&#10;<g
   id="g69"
   transform="translate(-34.93,-20.88)">&#10;	<path
   class="st0"
   d="m 50.77,127.27 h 6.03 v 1.53 h -4.2 v 2.12 h 3.94 v 1.53 H 52.6 v 3.46 h -1.82 v -8.64 z"
   id="path66" />&#10;	<path
   class="st0"
   d="m 67.19,131.56 c 0,2.4 -1.44,4.47 -4.25,4.47 -2.71,0 -4.13,-1.97 -4.13,-4.44 0,-2.51 1.57,-4.44 4.25,-4.44 2.53,0 4.13,1.77 4.13,4.41 z m -6.44,-0.01 c 0,1.69 0.74,2.96 2.27,2.96 1.66,0 2.25,-1.39 2.25,-2.93 0,-1.63 -0.67,-2.92 -2.28,-2.92 -1.56,0.01 -2.24,1.21 -2.24,2.89 z"
   id="path67" />&#10;	<path
   class="st0"
   d="M 71.32,128.8 H 68.7 v -1.53 h 7.11 v 1.53 h -2.62 v 7.11 h -1.87 z"
   id="path68" />&#10;	<path
   class="st0"
   d="m 85.57,131.56 c 0,2.4 -1.44,4.47 -4.25,4.47 -2.71,0 -4.13,-1.97 -4.13,-4.44 0,-2.51 1.57,-4.44 4.25,-4.44 2.53,0 4.13,1.77 4.13,4.41 z m -6.44,-0.01 c 0,1.69 0.74,2.96 2.27,2.96 1.66,0 2.25,-1.39 2.25,-2.93 0,-1.63 -0.67,-2.92 -2.28,-2.92 -1.56,0.01 -2.24,1.21 -2.24,2.89 z"
   id="path69" />&#10;</g>&#10;<g
   id="g72"
   transform="translate(-34.93,-20.88)">&#10;	<path
   class="st0"
   d="m 204.58,127.27 h 3.77 c 2.09,0 2.88,1.09 2.88,2.21 0,0.97 -0.52,1.61 -1.1,1.87 0.58,0.22 1.35,0.83 1.35,1.97 0,1.48 -1.16,2.59 -3,2.59 h -3.9 z m 3.56,3.41 c 0.89,0 1.25,-0.4 1.25,-1 0,-0.63 -0.48,-0.96 -1.2,-0.96 h -1.78 v 1.96 z m -1.72,3.79 h 1.68 c 1.01,0 1.47,-0.42 1.47,-1.21 0,-0.7 -0.45,-1.14 -1.48,-1.14 h -1.67 z"
   id="path70" />&#10;	<path
   class="st0"
   d="m 221.93,131.56 c 0,2.4 -1.44,4.47 -4.25,4.47 -2.71,0 -4.13,-1.97 -4.13,-4.44 0,-2.51 1.57,-4.44 4.25,-4.44 2.53,0 4.13,1.77 4.13,4.41 z m -6.45,-0.01 c 0,1.69 0.74,2.96 2.27,2.96 1.66,0 2.25,-1.39 2.25,-2.93 0,-1.63 -0.67,-2.92 -2.28,-2.92 -1.56,0.01 -2.24,1.21 -2.24,2.89 z"
   id="path71" />&#10;	<path
   class="st0"
   d="M 228.85,135.91 227,132.87 h -0.01 l -1.89,3.04 h -2.01 l 2.87,-4.35 -2.79,-4.29 h 2.17 l 1.75,2.86 h 0.01 l 1.81,-2.86 h 1.98 l -2.78,4.12 2.91,4.52 z"
   id="path72" />&#10;</g>&#10;<g
   id="g82"
   transform="translate(-34.93,-20.88)">&#10;	<path
   d="m 67.43,155.91 h 5.19 c 3.81,0 6.31,2.51 6.31,6.38 0,3.82 -2.42,6.71 -6.43,6.71 h -5.07 z m 2.83,10.81 h 2.12 c 2.51,0 3.62,-1.87 3.62,-4.42 0,-2.14 -1.04,-4.1 -3.6,-4.1 h -2.14 z"
   id="path73" />&#10;	<path
   d="m 91.85,163.36 h -6.26 v 3.33 h 6.91 l -0.34,2.32 h -9.32 v -13.1 h 9.29 v 2.32 h -6.54 v 2.81 h 6.26 z"
   id="path74" />&#10;	<path
   d="m 95.94,169.01 v -13.1 h 3.51 c 1.64,2.94 4.66,8.24 5.26,9.67 h 0.04 c -0.15,-1.37 -0.14,-3.64 -0.14,-5.79 v -3.88 h 2.57 v 13.1 h -3.33 c -1.41,-2.56 -4.76,-8.65 -5.41,-10.17 H 98.4 c 0.1,1.15 0.13,3.84 0.13,6.18 V 169 h -2.59 z"
   id="path75" />&#10;	<path
   d="m 129.79,162.42 c 0,3.64 -2.19,6.78 -6.44,6.78 -4.11,0 -6.26,-2.99 -6.26,-6.74 0,-3.81 2.38,-6.74 6.45,-6.74 3.83,0 6.25,2.69 6.25,6.7 z m -9.78,-0.02 c 0,2.56 1.12,4.49 3.44,4.49 2.52,0 3.41,-2.11 3.41,-4.44 0,-2.48 -1.01,-4.42 -3.46,-4.42 -2.35,0 -3.39,1.82 -3.39,4.37 z m 7.03,4.6 3.72,2.55 -1.64,1.88 -4.62,-3.2 z"
   id="path76" />&#10;	<path
   d="m 136.39,155.91 v 7.8 c 0,2.51 1.29,3.26 2.71,3.26 1.62,0 2.64,-0.88 2.64,-3.26 v -7.8 h 2.83 v 7.66 c 0,4.48 -2.62,5.62 -5.51,5.62 -2.96,0 -5.5,-1.19 -5.5,-5.57 v -7.72 h 2.83 z"
   id="path77" />&#10;	<path
   d="m 151.2,165.98 -1.02,3.03 h -2.78 l 4.45,-13.1 h 3.56 l 4.64,13.1 h -2.98 l -1.08,-3.03 z m 4.17,-2.32 c -0.93,-2.76 -1.52,-4.53 -1.84,-5.71 h -0.02 c -0.32,1.29 -0.98,3.35 -1.72,5.71 z"
   id="path78" />&#10;	<path
   d="m 163.15,169.01 v -13.1 h 3.51 c 1.64,2.94 4.66,8.24 5.26,9.67 h 0.04 c -0.15,-1.37 -0.14,-3.64 -0.14,-5.79 v -3.88 h 2.57 v 13.1 h -3.33 c -1.41,-2.56 -4.76,-8.65 -5.41,-10.17 h -0.04 c 0.1,1.15 0.13,3.84 0.13,6.18 V 169 h -2.59 z"
   id="path79" />&#10;	<path
   d="m 181.72,158.23 h -3.98 v -2.32 h 10.78 v 2.32 h -3.97 v 10.78 h -2.83 z"
   id="path80" />&#10;	<path
   d="m 200.71,163.36 h -6.26 v 3.33 h 6.91 l -0.34,2.32 h -9.32 v -13.1 h 9.29 v 2.32 h -6.54 v 2.81 h 6.26 z"
   id="path81" />&#10;	<path
   d="m 204.81,169.01 v -13.1 h 3.51 c 1.64,2.94 4.66,8.24 5.26,9.67 h 0.04 c -0.15,-1.37 -0.14,-3.64 -0.14,-5.79 v -3.88 h 2.57 v 13.1 h -3.33 c -1.41,-2.56 -4.76,-8.65 -5.41,-10.17 h -0.04 c 0.1,1.15 0.13,3.84 0.13,6.18 V 169 h -2.59 z"
   id="path82" />&#10;</g>&#10;<g
   id="g99"
   transform="translate(-34.93,-20.88)">&#10;	<path
   d="m 54.45,239.68 h 6.01 v 1.53 h -4.19 v 2.11 h 3.93 v 1.53 h -3.93 v 3.45 h -1.82 z"
   id="path83" />&#10;	<path
   d="m 64.93,239.68 v 5.13 c 0,1.65 0.85,2.14 1.78,2.14 1.07,0 1.74,-0.58 1.74,-2.14 v -5.13 h 1.86 v 5.04 c 0,2.95 -1.72,3.7 -3.62,3.7 -1.95,0 -3.62,-0.78 -3.62,-3.66 v -5.08 z m -0.21,-0.87 v -1.6 h 1.44 v 1.6 z m 2.49,0 v -1.6 h 1.44 v 1.6 z"
   id="path84" />&#10;	<path
   d="m 75.35,244.84 v 3.45 h -1.82 v -8.62 h 3.79 c 1.88,0 2.89,1.03 2.89,2.37 0,1.16 -0.63,1.78 -1.25,2.04 0.43,0.16 1.07,0.6 1.07,2.14 v 0.42 c 0,0.58 0.01,1.24 0.12,1.64 h -1.77 c -0.15,-0.38 -0.18,-1.02 -0.18,-1.93 v -0.13 c 0,-0.94 -0.24,-1.39 -1.63,-1.39 h -1.22 z m 0,-1.48 h 1.56 c 1.02,0 1.41,-0.39 1.41,-1.11 0,-0.7 -0.46,-1.09 -1.37,-1.09 h -1.61 v 2.2 z"
   id="path85" />&#10;	<path
   d="m 89.05,241.2 h -2.62 v -1.53 h 7.09 v 1.53 h -2.61 v 7.09 h -1.86 z"
   id="path86" />&#10;	<path
   d="m 97.75,244.84 v 3.45 h -1.82 v -8.62 h 3.79 c 1.88,0 2.89,1.03 2.89,2.37 0,1.16 -0.63,1.78 -1.25,2.04 0.43,0.16 1.07,0.6 1.07,2.14 v 0.42 c 0,0.58 0.01,1.24 0.12,1.64 h -1.77 c -0.15,-0.38 -0.18,-1.02 -0.18,-1.93 v -0.13 c 0,-0.94 -0.24,-1.39 -1.63,-1.39 h -1.22 z m 0,-1.48 h 1.56 c 1.02,0 1.41,-0.39 1.41,-1.11 0,-0.7 -0.46,-1.09 -1.37,-1.09 h -1.61 v 2.2 z"
   id="path87" />&#10;	<path
   d="m 107.38,239.68 v 8.62 h -1.86 v -8.62 z"
   id="path88" />&#10;	<path
   d="m 116.62,244.58 h -4.12 v 2.19 h 4.54 l -0.22,1.53 h -6.13 v -8.62 h 6.11 v 1.53 h -4.3 v 1.85 h 4.12 z"
   id="path89" />&#10;	<path
   d="m 121.45,244.84 v 3.45 h -1.82 v -8.62 h 3.79 c 1.88,0 2.89,1.03 2.89,2.37 0,1.16 -0.63,1.78 -1.25,2.04 0.43,0.16 1.07,0.6 1.07,2.14 v 0.42 c 0,0.58 0.01,1.24 0.12,1.64 h -1.77 c -0.15,-0.38 -0.18,-1.02 -0.18,-1.93 v -0.13 c 0,-0.94 -0.24,-1.39 -1.63,-1.39 h -1.22 z m 0,-1.48 h 1.56 c 1.02,0 1.41,-0.39 1.41,-1.11 0,-0.7 -0.46,-1.09 -1.37,-1.09 h -1.61 v 2.2 z"
   id="path90" />&#10;	<path
   d="m 141.62,242.94 -2.3,3.1 c -1,1.35 -1.69,2.37 -3.59,2.37 -1.93,0 -2.79,-1.22 -2.79,-2.4 0,-1.25 0.84,-1.97 2.38,-2.71 0.88,-0.31 1.74,-0.8 1.74,-1.62 0,-0.47 -0.25,-0.9 -0.81,-0.9 -0.5,0 -0.82,0.37 -0.82,0.93 0,0.52 0.43,0.93 0.93,1.4 l 5.31,5.18 h -2.3 l -4.56,-4.47 c -0.53,-0.52 -1.01,-1.17 -1.01,-1.97 0,-1.31 0.96,-2.29 2.45,-2.29 1.53,0 2.39,1 2.39,2.1 0,1.14 -0.86,1.81 -2.43,2.54 -1.11,0.45 -1.43,1.06 -1.43,1.61 0,0.57 0.37,1.11 1.17,1.11 0.91,0 1.28,-0.47 2.33,-1.9 l 1.52,-2.07 h 1.82 z"
   id="path91" />&#10;	<path
   d="m 150.47,239.68 v 5.13 c 0,1.65 0.85,2.14 1.78,2.14 1.07,0 1.74,-0.58 1.74,-2.14 v -5.13 h 1.86 v 5.04 c 0,2.95 -1.72,3.7 -3.62,3.7 -1.95,0 -3.62,-0.78 -3.62,-3.66 v -5.08 z"
   id="path92" />&#10;	<path
   d="m 166.27,245.06 c 0,-1.47 0.02,-3.12 0.06,-4.09 h -0.06 c -0.4,1.76 -1.27,4.63 -2.09,7.32 h -1.59 c -0.63,-2.36 -1.52,-5.63 -1.9,-7.35 h -0.06 c 0.07,1.01 0.11,2.78 0.11,4.26 v 3.09 h -1.7 v -8.62 h 2.77 c 0.67,2.25 1.42,5.08 1.68,6.36 h 0.01 c 0.21,-1.13 1.16,-4.15 1.88,-6.36 h 2.67 v 8.62 h -1.8 v -3.23 z"
   id="path93" />&#10;	<path
   d="m 178.87,248.29 h -1.37 c -0.07,-0.26 -0.12,-0.56 -0.14,-0.85 -0.48,0.64 -1.32,0.99 -2.52,0.99 -2.5,0 -3.9,-1.89 -3.9,-4.34 0,-2.59 1.51,-4.54 4.22,-4.54 2.22,0 3.52,1.25 3.73,2.72 h -1.86 c -0.18,-0.58 -0.63,-1.26 -1.89,-1.26 -1.77,0 -2.27,1.48 -2.27,3 0,1.48 0.58,2.94 2.29,2.94 1.59,0 1.89,-1.11 1.89,-1.88 V 245 h -1.89 v -1.53 h 3.72 v 4.82 z"
   id="path94" />&#10;	<path
   d="m 187.95,244.58 h -4.12 v 2.19 h 4.54 l -0.22,1.53 h -6.13 v -8.62 h 6.11 v 1.53 h -4.3 v 1.85 h 4.12 z"
   id="path95" />&#10;	<path
   d="m 190.96,239.68 h 3.76 c 2.08,0 2.87,1.08 2.87,2.2 0,0.97 -0.51,1.6 -1.1,1.87 0.58,0.22 1.34,0.83 1.34,1.96 0,1.47 -1.16,2.58 -2.99,2.58 h -3.89 v -8.61 z m 3.55,3.4 c 0.88,0 1.25,-0.4 1.25,-1 0,-0.63 -0.48,-0.96 -1.2,-0.96 h -1.78 v 1.96 z m -1.72,3.77 h 1.68 c 1.01,0 1.46,-0.42 1.46,-1.2 0,-0.69 -0.45,-1.14 -1.47,-1.14 h -1.67 z"
   id="path96" />&#10;	<path
   d="m 202.39,239.68 v 5.13 c 0,1.65 0.85,2.14 1.78,2.14 1.07,0 1.74,-0.58 1.74,-2.14 v -5.13 h 1.86 v 5.04 c 0,2.95 -1.72,3.7 -3.62,3.7 -1.95,0 -3.62,-0.78 -3.62,-3.66 v -5.08 z"
   id="path97" />&#10;	<path
   d="m 210.99,248.29 v -8.62 h 2.31 c 1.08,1.93 3.06,5.42 3.46,6.36 h 0.02 c -0.1,-0.9 -0.1,-2.4 -0.1,-3.81 v -2.55 h 1.69 v 8.62 h -2.19 c -0.93,-1.68 -3.13,-5.69 -3.56,-6.69 h -0.02 c 0.06,0.75 0.08,2.52 0.08,4.07 v 2.62 z"
   id="path98" />&#10;	<path
   d="m 229.17,248.29 h -1.37 c -0.07,-0.26 -0.12,-0.56 -0.14,-0.85 -0.48,0.64 -1.32,0.99 -2.52,0.99 -2.5,0 -3.9,-1.89 -3.9,-4.34 0,-2.59 1.51,-4.54 4.22,-4.54 2.22,0 3.52,1.25 3.73,2.72 h -1.86 c -0.18,-0.58 -0.63,-1.26 -1.89,-1.26 -1.77,0 -2.27,1.48 -2.27,3 0,1.48 0.58,2.94 2.29,2.94 1.59,0 1.89,-1.11 1.89,-1.88 V 245 h -1.89 v -1.53 h 3.72 v 4.82 z"
   id="path99" />&#10;</g>&#10;<g
   id="g106"
   transform="translate(-34.93,-20.88)">&#10;	<path
   d="m 65.62,207.53 c 4.19,-0.14 15.09,-2.11 15.09,7.27 0,7.22 -9.53,14.87 -20.22,14.87 -8.01,0 -13.94,-6.07 -14.95,-8.88 -1.3,-3.61 -2.89,-13.63 -2.89,-23.95 0.07,-2.02 0.14,-4.55 0.22,-6.07 -1.66,0.72 -4.19,2.02 -5.56,2.82 -0.58,-0.22 -2.38,-1.08 -2.38,-2.6 0,-1.52 13.57,-16.25 32.13,-16.25 11.05,0 16.75,3.97 16.75,11.41 0.01,14.38 -13.49,20.3 -18.19,21.38 z m -3.9,-21.66 c -0.79,0 -1.59,0 -2.31,0.07 -1.66,3.47 -5.34,15.02 -5.34,28.16 0,4.69 0.79,11.25 5.56,11.25 4.62,0 6.21,-6.79 6.21,-11.55 0,-5.34 -4.19,-4.46 -6.57,-4.46 -1.16,0 -1.66,-2.74 -0.22,-2.74 3.54,0 9.89,-4.48 9.89,-13.43 0,-5.2 -2.6,-7.3 -7.22,-7.3 z"
   id="path100" />&#10;	<path
   d="m 109.89,222.17 c -2.89,4.26 -6.14,7.36 -11.05,7.36 -6.21,0 -13.94,-1.71 -13.94,-18.68 0,-22.24 8.88,-35.16 15.6,-35.16 3.47,0 7.29,1.81 7.29,10.47 0,6.57 -3.47,21.01 -10.76,25.34 0.22,8.09 2.02,11.75 5.05,11.75 2.38,0 4.69,-2.31 6.86,-6.64 1.88,-3.75 2.89,-6.5 3.54,-8.09 0.43,-0.94 0.65,-1.44 0.87,-1.44 0.72,0 0.79,2.17 0.79,3.39 0.01,2.1 -1.29,7.44 -4.25,11.7 z m -6.94,-39.69 c -2.09,0 -5.99,10.33 -5.99,24.26 v 0.58 c 5.34,-5.34 7.29,-17.04 7.29,-23.03 0,-1.45 -0.65,-1.81 -1.3,-1.81 z"
   id="path101" />&#10;	<path
   d="m 132.7,221.88 c -2.6,3.9 -5.7,7.65 -12.49,7.65 -6.28,0 -11.12,-4.12 -11.12,-13.36 0,-4.26 1.3,-10.25 1.3,-12.42 0,-0.58 -0.79,1.46 -1.37,0.67 -0.51,-0.72 -0.87,-1.44 -0.87,-2.17 0,-2.24 8.01,-5.05 13.65,-5.05 2.6,0 4.19,0.72 4.19,1.8 0,2.74 -1.59,6.93 -3.03,11.7 -1.23,4.19 -2.46,6.05 -2.46,10.67 0,2.09 1.08,3.9 2.82,3.9 2.89,0 5.7,-4.12 7.22,-6.71 2.6,-4.4 4.48,-9.82 4.84,-10.69 0.22,-0.51 0.43,-0.79 0.58,-0.79 0.51,-0.14 0.87,1.44 0.87,3.1 -0.01,3.69 -2.32,8.96 -4.13,11.7 z m -16.03,-28.72 c -2.74,0 -6.35,-1.37 -6.35,-4.69 0,-4.55 5.99,-7.22 9.89,-7.22 2.82,0 6.43,1.3 6.43,4.62 0,4.55 -6.07,7.29 -9.97,7.29 z"
   id="path102" />&#10;	<path
   d="m 155.35,220 c -2.01,3.52 -3.14,9.54 -9.93,9.54 -9.82,0 -11.48,-13.43 -11.48,-24.19 0,-3.97 0,-4.75 0.22,-7.35 -0.79,0.07 -1.59,0.07 -2.46,0.07 -1.95,0 -4.33,-0.07 -6.21,-0.94 -1.52,-0.65 -3.18,-2.96 -3.18,-5.2 0,-0.79 0.29,-1.3 0.94,-1.3 0.58,0 1.23,0.36 1.81,0.58 3.1,1.16 6.35,1.66 9.6,1.88 0.14,-1.37 0.22,-2.38 0.22,-2.96 0,-0.65 -0.14,-1.37 -0.72,-2.24 -0.51,-0.65 -0.87,-1.44 -0.87,-2.17 0,-2.24 7.94,-5.05 13.65,-5.05 2.6,0 3.9,1.44 3.9,2.53 0,1.09 -0.72,4.62 -1.66,9.46 l 0.94,-0.07 c 1.3,0 7.29,-0.14 7.29,2.53 0,1.16 -1.73,2.24 -2.46,2.24 -0.14,0 -0.29,0 -0.43,-0.07 -1.95,-0.65 -3.97,-0.87 -5.99,-0.87 -1.23,3.54 -2.82,13.7 -2.82,23.23 0,3.75 1.38,6.58 2.74,5.63 0.6,-0.42 1.86,-2.25 3.96,-7.26 2.1,-5.01 3.84,-9.28 4.2,-10.14 0.22,-0.51 0.36,-0.79 0.58,-0.79 0.51,-0.14 0.87,1.44 0.87,3.1 -0.01,3.68 -0.7,6.29 -2.71,9.81 z"
   id="path103" />&#10;	<path
   d="m 165.71,227.3 c -3.59,-0.06 -5.34,1.81 -6.14,1.81 -0.8,0 -2.17,-2.6 -2.17,-5.78 0,-0.65 0.14,-1.08 0.65,-1.37 5.2,-2.96 12.85,-9.89 15.31,-14.73 0,-0.29 -0.07,-0.36 -0.29,-0.29 -1.59,1.37 -3.03,1.73 -4.4,1.73 -3.1,0 -5.34,-2.89 -5.92,-2.89 -0.79,0 -5.03,9.8 -6.55,12.62 -0.58,1.23 -1.39,1.82 -1.83,1.82 -0.79,0 -1.16,-0.94 -1.08,-2.6 0,-0.94 0.22,-1.95 0.58,-2.82 0.79,-1.52 2.17,-5.13 3.32,-8.45 1.3,-3.83 1.16,-7.8 2.31,-10.18 0.58,-1.23 1.66,-2.02 3.54,-2.02 2.46,0 3.83,1.95 6.35,1.95 2.89,0 4.19,-1.3 5.92,-1.3 1.52,0 4.77,4.55 4.77,6.86 0,8.74 -9.82,16.9 -13.21,19.21 1.23,-0.36 2.38,-0.58 3.39,-0.58 4.26,0 6.93,0.77 7.94,2.14 0.51,-0.29 -0.29,-0.58 2.41,-6.4 2.7,-5.82 6.07,-10.92 6.36,-10.92 0.29,0 4.08,6.09 4.08,8.19 0,4.62 -5.18,2.11 -7.72,10.61 -2.54,8.5 -0.8,11.71 -1.88,11.7 -1.08,-0.02 -3.96,-8.12 -15.74,-8.31 z m 8.37,6.42"
   id="path104" />&#10;	<path
   d="m 213.73,221.16 c -2.02,3.54 -6.21,8.59 -14.87,8.59 -9.24,0 -16.54,-4.77 -16.54,-16.17 0,-12.71 8.01,-19.42 13.5,-19.42 5.92,0 10.18,3.1 10.18,8.09 0,6.64 -3.32,14.73 -8.09,14.73 -1.66,0 -2.89,-0.5 -3.83,-1.23 0.58,7 3.25,10.4 6.79,10.4 3.97,0 8.16,-3.83 10.61,-8.09 1.95,-3.39 3.75,-8.16 4.55,-10.11 0.22,-0.58 0.43,-0.94 0.58,-0.94 0.36,0 0.87,0.79 0.87,3.18 0,2.74 -1.59,7.22 -3.75,10.97 z m -13.36,-21.44 c -2.17,0 -5.92,3.32 -6.35,11.26 0.79,1.23 1.95,2.31 3.1,2.31 3.03,0 5.27,-6.64 5.27,-10.83 0,-2.09 -1.16,-2.74 -2.02,-2.74 z"
   id="path105" />&#10;	<path
   d="m 244.63,221.52 c -3.75,6.07 -7.87,8.09 -12.49,8.09 -6.07,0 -11.84,-4.12 -11.84,-14.22 0,-4.26 1.59,-9.17 2.24,-10.47 -0.87,-0.14 -1.66,-0.58 -2.02,-0.79 -0.43,1.73 -3.32,10.54 -4.98,13.65 -1.3,2.38 -1.66,3.25 -2.17,3.25 -0.58,0 -1.16,-1.37 -1.16,-3.32 0,-0.94 0.43,-1.8 0.79,-2.6 1.23,-2.38 3.32,-8.45 4.33,-11.84 -1.3,-0.58 -4.12,-2.09 -4.12,-4.98 0,-3.83 5.05,-8.16 7.94,-8.16 1.44,0 1.59,1.95 1.59,3.39 0,0.43 0,0.79 0,1.08 0,1.16 1.23,1.73 2.89,1.73 1.59,0 2.67,-1.52 4.26,-1.52 1.66,0 6.07,5.56 6.07,8.45 0,2.02 -3.75,9.1 -3.75,17.18 0,3.25 0.94,4.84 2.96,4.84 2.6,0 5.27,-3.68 7.08,-6.71 2.82,-4.77 4.04,-9.03 4.84,-10.69 0.22,-0.51 0.43,-0.79 0.65,-0.79 0.36,0 0.79,1.08 0.79,2.96 0,2.88 -1.23,7.14 -3.9,11.47 z"
   id="path106" />&#10;</g>&#10;<g
   id="g108"
   transform="translate(-34.93,-20.88)">&#10;	<g
   id="g107">&#10;		<path
   d="m 49.13,244 c 0,-1.17 -0.95,-2.13 -2.13,-2.13 -1.17,0 -2.13,0.95 -2.13,2.13 0,1.17 0.95,2.13 2.13,2.13 1.18,-0.01 2.13,-0.96 2.13,-2.13 z"
   id="path107" />&#10;	</g>&#10;</g>&#10;<path
   d="m 203.66,223.12 c 0,-1.17 -0.95,-2.13 -2.13,-2.13 -1.17,0 -2.13,0.95 -2.13,2.13 0,1.17 0.95,2.13 2.13,2.13 1.18,-0.01 2.13,-0.96 2.13,-2.13 z"
   id="path108" />&#10;</svg>
