<?xml version="1.0" encoding="UTF-8" standalone="no"?>
<svg
   version="1.1"
   id="Ebene_1"
   x="0px"
   y="0px"
   viewBox="0 0 213.60001 79.890025"
   xml:space="preserve"
   sodipodi:docname="logo-text.svg"
   inkscape:version="1.3 (0e150ed6c4, 2023-07-21)"
   width="213.60001"
   height="79.890022"
   xmlns:inkscape="http://www.inkscape.org/namespaces/inkscape"
   xmlns:sodipodi="http://sodipodi.sourceforge.net/DTD/sodipodi-0.dtd"
   xmlns="http://www.w3.org/2000/svg"
   xmlns:svg="http://www.w3.org/2000/svg"
   xmlns:rdf="http://www.w3.org/1999/02/22-rdf-syntax-ns#"
   xmlns:cc="http://creativecommons.org/ns#"
   xmlns:dc="http://purl.org/dc/elements/1.1/"><metadata
   id="metadata366"><rdf:RDF><cc:Work
       rdf:about=""><dc:format>image/svg+xml</dc:format><dc:type
         rdf:resource="http://purl.org/dc/dcmitype/StillImage" /><dc:title /></cc:Work></rdf:RDF></metadata><defs
   id="defs364" /><sodipodi:namedview
   pagecolor="#ffffff"
   bordercolor="#666666"
   borderopacity="1"
   objecttolerance="10"
   gridtolerance="10"
   guidetolerance="10"
   inkscape:pageopacity="0"
   inkscape:pageshadow="2"
   inkscape:window-width="1920"
   inkscape:window-height="1009"
   id="namedview362"
   showgrid="false"
   inkscape:zoom="2.9704368"
   inkscape:cx="106.71831"
   inkscape:cy="-16.327565"
   inkscape:window-x="-8"
   inkscape:window-y="-8"
   inkscape:window-maximized="1"
   inkscape:current-layer="Ebene_1"
   inkscape:showpageshadow="2"
   inkscape:pagecheckerboard="0"
   inkscape:deskcolor="#d1d1d1" />&#10;<style
   type="text/css"
   id="style2">&#10;	.st0{fill:#FFFFFF;}&#10;</style>&#10;&#10;&#10;&#10;&#10;<g
   id="g299"
   transform="translate(-34.93,-155.72)">&#10;	<path
   d="m 67.43,155.91 h 5.19 c 3.81,0 6.31,2.51 6.31,6.38 0,3.82 -2.42,6.71 -6.43,6.71 h -5.07 z m 2.83,10.81 h 2.12 c 2.51,0 3.62,-1.87 3.62,-4.42 0,-2.14 -1.04,-4.1 -3.6,-4.1 h -2.14 z"
   id="path279" />&#10;	<path
   d="m 91.85,163.36 h -6.26 v 3.33 h 6.91 l -0.34,2.32 h -9.32 v -13.1 h 9.29 v 2.32 h -6.54 v 2.81 h 6.26 z"
   id="path281" />&#10;	<path
   d="m 95.94,169.01 v -13.1 h 3.51 c 1.64,2.94 4.66,8.24 5.26,9.67 h 0.04 c -0.15,-1.37 -0.14,-3.64 -0.14,-5.79 v -3.88 h 2.57 v 13.1 h -3.33 c -1.41,-2.56 -4.76,-8.65 -5.41,-10.17 H 98.4 c 0.1,1.15 0.13,3.84 0.13,6.18 V 169 h -2.59 z"
   id="path283" />&#10;	<path
   d="m 129.79,162.42 c 0,3.64 -2.19,6.78 -6.44,6.78 -4.11,0 -6.26,-2.99 -6.26,-6.74 0,-3.81 2.38,-6.74 6.45,-6.74 3.83,0 6.25,2.69 6.25,6.7 z m -9.78,-0.02 c 0,2.56 1.12,4.49 3.44,4.49 2.52,0 3.41,-2.11 3.41,-4.44 0,-2.48 -1.01,-4.42 -3.46,-4.42 -2.35,0 -3.39,1.82 -3.39,4.37 z m 7.03,4.6 3.72,2.55 -1.64,1.88 -4.62,-3.2 z"
   id="path285" />&#10;	<path
   d="m 136.39,155.91 v 7.8 c 0,2.51 1.29,3.26 2.71,3.26 1.62,0 2.64,-0.88 2.64,-3.26 v -7.8 h 2.83 v 7.66 c 0,4.48 -2.62,5.62 -5.51,5.62 -2.96,0 -5.5,-1.19 -5.5,-5.57 v -7.72 h 2.83 z"
   id="path287" />&#10;	<path
   d="m 151.2,165.98 -1.02,3.03 h -2.78 l 4.45,-13.1 h 3.56 l 4.64,13.1 h -2.98 l -1.08,-3.03 z m 4.17,-2.32 c -0.93,-2.76 -1.52,-4.53 -1.84,-5.71 h -0.02 c -0.32,1.29 -0.98,3.35 -1.72,5.71 z"
   id="path289" />&#10;	<path
   d="m 163.15,169.01 v -13.1 h 3.51 c 1.64,2.94 4.66,8.24 5.26,9.67 h 0.04 c -0.15,-1.37 -0.14,-3.64 -0.14,-5.79 v -3.88 h 2.57 v 13.1 h -3.33 c -1.41,-2.56 -4.76,-8.65 -5.41,-10.17 h -0.04 c 0.1,1.15 0.13,3.84 0.13,6.18 V 169 h -2.59 z"
   id="path291" />&#10;	<path
   d="m 181.72,158.23 h -3.98 v -2.32 h 10.78 v 2.32 h -3.97 v 10.78 h -2.83 z"
   id="path293" />&#10;	<path
   d="m 200.71,163.36 h -6.26 v 3.33 h 6.91 l -0.34,2.32 h -9.32 v -13.1 h 9.29 v 2.32 h -6.54 v 2.81 h 6.26 z"
   id="path295" />&#10;	<path
   d="m 204.81,169.01 v -13.1 h 3.51 c 1.64,2.94 4.66,8.24 5.26,9.67 h 0.04 c -0.15,-1.37 -0.14,-3.64 -0.14,-5.79 v -3.88 h 2.57 v 13.1 h -3.33 c -1.41,-2.56 -4.76,-8.65 -5.41,-10.17 h -0.04 c 0.1,1.15 0.13,3.84 0.13,6.18 V 169 h -2.59 z"
   id="path297" />&#10;</g>&#10;&#10;<g
   id="g351"
   transform="translate(-34.93,-155.72)">&#10;	<path
   d="m 65.62,207.53 c 4.19,-0.14 15.09,-2.11 15.09,7.27 0,7.22 -9.53,14.87 -20.22,14.87 -8.01,0 -13.94,-6.07 -14.95,-8.88 -1.3,-3.61 -2.89,-13.63 -2.89,-23.95 0.07,-2.02 0.14,-4.55 0.22,-6.07 -1.66,0.72 -4.19,2.02 -5.56,2.82 -0.58,-0.22 -2.38,-1.08 -2.38,-2.6 0,-1.52 13.57,-16.25 32.13,-16.25 11.05,0 16.75,3.97 16.75,11.41 0.01,14.38 -13.49,20.3 -18.19,21.38 z m -3.9,-21.66 c -0.79,0 -1.59,0 -2.31,0.07 -1.66,3.47 -5.34,15.02 -5.34,28.16 0,4.69 0.79,11.25 5.56,11.25 4.62,0 6.21,-6.79 6.21,-11.55 0,-5.34 -4.19,-4.46 -6.57,-4.46 -1.16,0 -1.66,-2.74 -0.22,-2.74 3.54,0 9.89,-4.48 9.89,-13.43 0,-5.2 -2.6,-7.3 -7.22,-7.3 z"
   id="path337" />&#10;	<path
   d="m 109.89,222.17 c -2.89,4.26 -6.14,7.36 -11.05,7.36 -6.21,0 -13.94,-1.71 -13.94,-18.68 0,-22.24 8.88,-35.16 15.6,-35.16 3.47,0 7.29,1.81 7.29,10.47 0,6.57 -3.47,21.01 -10.76,25.34 0.22,8.09 2.02,11.75 5.05,11.75 2.38,0 4.69,-2.31 6.86,-6.64 1.88,-3.75 2.89,-6.5 3.54,-8.09 0.43,-0.94 0.65,-1.44 0.87,-1.44 0.72,0 0.79,2.17 0.79,3.39 0.01,2.1 -1.29,7.44 -4.25,11.7 z m -6.94,-39.69 c -2.09,0 -5.99,10.33 -5.99,24.26 v 0.58 c 5.34,-5.34 7.29,-17.04 7.29,-23.03 0,-1.45 -0.65,-1.81 -1.3,-1.81 z"
   id="path339" />&#10;	<path
   d="m 132.7,221.88 c -2.6,3.9 -5.7,7.65 -12.49,7.65 -6.28,0 -11.12,-4.12 -11.12,-13.36 0,-4.26 1.3,-10.25 1.3,-12.42 0,-0.58 -0.79,1.46 -1.37,0.67 -0.51,-0.72 -0.87,-1.44 -0.87,-2.17 0,-2.24 8.01,-5.05 13.65,-5.05 2.6,0 4.19,0.72 4.19,1.8 0,2.74 -1.59,6.93 -3.03,11.7 -1.23,4.19 -2.46,6.05 -2.46,10.67 0,2.09 1.08,3.9 2.82,3.9 2.89,0 5.7,-4.12 7.22,-6.71 2.6,-4.4 4.48,-9.82 4.84,-10.69 0.22,-0.51 0.43,-0.79 0.58,-0.79 0.51,-0.14 0.87,1.44 0.87,3.1 -0.01,3.69 -2.32,8.96 -4.13,11.7 z m -16.03,-28.72 c -2.74,0 -6.35,-1.37 -6.35,-4.69 0,-4.55 5.99,-7.22 9.89,-7.22 2.82,0 6.43,1.3 6.43,4.62 0,4.55 -6.07,7.29 -9.97,7.29 z"
   id="path341" />&#10;	<path
   d="m 155.35,220 c -2.01,3.52 -3.14,9.54 -9.93,9.54 -9.82,0 -11.48,-13.43 -11.48,-24.19 0,-3.97 0,-4.75 0.22,-7.35 -0.79,0.07 -1.59,0.07 -2.46,0.07 -1.95,0 -4.33,-0.07 -6.21,-0.94 -1.52,-0.65 -3.18,-2.96 -3.18,-5.2 0,-0.79 0.29,-1.3 0.94,-1.3 0.58,0 1.23,0.36 1.81,0.58 3.1,1.16 6.35,1.66 9.6,1.88 0.14,-1.37 0.22,-2.38 0.22,-2.96 0,-0.65 -0.14,-1.37 -0.72,-2.24 -0.51,-0.65 -0.87,-1.44 -0.87,-2.17 0,-2.24 7.94,-5.05 13.65,-5.05 2.6,0 3.9,1.44 3.9,2.53 0,1.09 -0.72,4.62 -1.66,9.46 l 0.94,-0.07 c 1.3,0 7.29,-0.14 7.29,2.53 0,1.16 -1.73,2.24 -2.46,2.24 -0.14,0 -0.29,0 -0.43,-0.07 -1.95,-0.65 -3.97,-0.87 -5.99,-0.87 -1.23,3.54 -2.82,13.7 -2.82,23.23 0,3.75 1.38,6.58 2.74,5.63 0.6,-0.42 1.86,-2.25 3.96,-7.26 2.1,-5.01 3.84,-9.28 4.2,-10.14 0.22,-0.51 0.36,-0.79 0.58,-0.79 0.51,-0.14 0.87,1.44 0.87,3.1 -0.01,3.68 -0.7,6.29 -2.71,9.81 z"
   id="path343" />&#10;	<path
   d="m 165.71,227.3 c -3.59,-0.06 -5.34,1.81 -6.14,1.81 -0.8,0 -2.17,-2.6 -2.17,-5.78 0,-0.65 0.14,-1.08 0.65,-1.37 5.2,-2.96 12.85,-9.89 15.31,-14.73 0,-0.29 -0.07,-0.36 -0.29,-0.29 -1.59,1.37 -3.03,1.73 -4.4,1.73 -3.1,0 -5.34,-2.89 -5.92,-2.89 -0.79,0 -5.03,9.8 -6.55,12.62 -0.58,1.23 -1.39,1.82 -1.83,1.82 -0.79,0 -1.16,-0.94 -1.08,-2.6 0,-0.94 0.22,-1.95 0.58,-2.82 0.79,-1.52 2.17,-5.13 3.32,-8.45 1.3,-3.83 1.16,-7.8 2.31,-10.18 0.58,-1.23 1.66,-2.02 3.54,-2.02 2.46,0 3.83,1.95 6.35,1.95 2.89,0 4.19,-1.3 5.92,-1.3 1.52,0 4.77,4.55 4.77,6.86 0,8.74 -9.82,16.9 -13.21,19.21 1.23,-0.36 2.38,-0.58 3.39,-0.58 4.26,0 6.93,0.77 7.94,2.14 0.51,-0.29 -0.29,-0.58 2.41,-6.4 2.7,-5.82 6.07,-10.92 6.36,-10.92 0.29,0 4.08,6.09 4.08,8.19 0,4.62 -5.18,2.11 -7.72,10.61 -2.54,8.5 -0.8,11.71 -1.88,11.7 -1.08,-0.02 -3.96,-8.12 -15.74,-8.31 z m 8.37,6.42"
   id="path345" />&#10;	<path
   d="m 213.73,221.16 c -2.02,3.54 -6.21,8.59 -14.87,8.59 -9.24,0 -16.54,-4.77 -16.54,-16.17 0,-12.71 8.01,-19.42 13.5,-19.42 5.92,0 10.18,3.1 10.18,8.09 0,6.64 -3.32,14.73 -8.09,14.73 -1.66,0 -2.89,-0.5 -3.83,-1.23 0.58,7 3.25,10.4 6.79,10.4 3.97,0 8.16,-3.83 10.61,-8.09 1.95,-3.39 3.75,-8.16 4.55,-10.11 0.22,-0.58 0.43,-0.94 0.58,-0.94 0.36,0 0.87,0.79 0.87,3.18 0,2.74 -1.59,7.22 -3.75,10.97 z m -13.36,-21.44 c -2.17,0 -5.92,3.32 -6.35,11.26 0.79,1.23 1.95,2.31 3.1,2.31 3.03,0 5.27,-6.64 5.27,-10.83 0,-2.09 -1.16,-2.74 -2.02,-2.74 z"
   id="path347" />&#10;	<path
   d="m 244.63,221.52 c -3.75,6.07 -7.87,8.09 -12.49,8.09 -6.07,0 -11.84,-4.12 -11.84,-14.22 0,-4.26 1.59,-9.17 2.24,-10.47 -0.87,-0.14 -1.66,-0.58 -2.02,-0.79 -0.43,1.73 -3.32,10.54 -4.98,13.65 -1.3,2.38 -1.66,3.25 -2.17,3.25 -0.58,0 -1.16,-1.37 -1.16,-3.32 0,-0.94 0.43,-1.8 0.79,-2.6 1.23,-2.38 3.32,-8.45 4.33,-11.84 -1.3,-0.58 -4.12,-2.09 -4.12,-4.98 0,-3.83 5.05,-8.16 7.94,-8.16 1.44,0 1.59,1.95 1.59,3.39 0,0.43 0,0.79 0,1.08 0,1.16 1.23,1.73 2.89,1.73 1.59,0 2.67,-1.52 4.26,-1.52 1.66,0 6.07,5.56 6.07,8.45 0,2.02 -3.75,9.1 -3.75,17.18 0,3.25 0.94,4.84 2.96,4.84 2.6,0 5.27,-3.68 7.08,-6.71 2.82,-4.77 4.04,-9.03 4.84,-10.69 0.22,-0.51 0.43,-0.79 0.65,-0.79 0.36,0 0.79,1.08 0.79,2.96 0,2.88 -1.23,7.14 -3.9,11.47 z"
   id="path349" />&#10;</g>&#10;&#10;&#10;</svg>
